<svg width="199" height="46" viewBox="0 0 199 46" fill="none" xmlns="http://www.w3.org/2000/svg">
<path d="M71.056 31.384C69.28 31.384 67.68 31.016 66.256 30.28C64.832 29.528 63.712 28.488 62.896 27.16C62.096 25.816 61.696 24.296 61.696 22.6C61.696 20.904 62.096 19.392 62.896 18.064C63.712 16.72 64.832 15.68 66.256 14.944C67.68 14.192 69.28 13.816 71.056 13.816C72.688 13.816 74.144 14.104 75.424 14.68C76.704 15.256 77.76 16.088 78.592 17.176L75.016 20.368C73.976 19.056 72.752 18.4 71.344 18.4C70.16 18.4 69.208 18.784 68.488 19.552C67.768 20.304 67.408 21.32 67.408 22.6C67.408 23.88 67.768 24.904 68.488 25.672C69.208 26.424 70.16 26.8 71.344 26.8C72.752 26.8 73.976 26.144 75.016 24.832L78.592 28.024C77.76 29.112 76.704 29.944 75.424 30.52C74.144 31.096 72.688 31.384 71.056 31.384ZM86.1794 17.632C88.4834 17.632 90.2434 18.152 91.4594 19.192C92.6754 20.216 93.2834 21.8 93.2834 23.944V31H88.2434V29.272C87.6194 30.584 86.3794 31.24 84.5234 31.24C83.4834 31.24 82.5954 31.064 81.8594 30.712C81.1394 30.344 80.5874 29.856 80.2034 29.248C79.8354 28.624 79.6514 27.928 79.6514 27.16C79.6514 25.864 80.1474 24.88 81.1394 24.208C82.1314 23.536 83.6354 23.2 85.6514 23.2H87.8354C87.6594 22.176 86.8354 21.664 85.3634 21.664C84.7714 21.664 84.1714 21.76 83.5634 21.952C82.9554 22.128 82.4354 22.376 82.0034 22.696L80.2754 19.12C81.0274 18.656 81.9314 18.296 82.9874 18.04C84.0594 17.768 85.1234 17.632 86.1794 17.632ZM86.1554 27.976C86.5394 27.976 86.8834 27.872 87.1874 27.664C87.4914 27.456 87.7154 27.144 87.8594 26.728V25.816H86.5154C85.4114 25.816 84.8594 26.184 84.8594 26.92C84.8594 27.224 84.9714 27.48 85.1954 27.688C85.4354 27.88 85.7554 27.976 86.1554 27.976ZM101.027 19.288C101.987 18.184 103.404 17.632 105.276 17.632V22.432C104.844 22.368 104.444 22.336 104.076 22.336C102.22 22.336 101.292 23.28 101.292 25.168V31H95.8675V17.872H101.027V19.288ZM121.856 26.776H120.32V31H114.656V14.2H122.744C124.296 14.2 125.648 14.456 126.8 14.968C127.952 15.48 128.84 16.216 129.464 17.176C130.088 18.136 130.4 19.256 130.4 20.536C130.4 21.736 130.128 22.784 129.584 23.68C129.04 24.576 128.256 25.288 127.232 25.816L130.76 31H124.712L121.856 26.776ZM124.688 20.536C124.688 19.912 124.496 19.432 124.112 19.096C123.728 18.744 123.152 18.568 122.384 18.568H120.32V22.504H122.384C123.152 22.504 123.728 22.336 124.112 22C124.496 21.648 124.688 21.16 124.688 20.536ZM146.579 24.424C146.579 24.504 146.555 24.928 146.507 25.696H137.387C137.579 26.192 137.899 26.576 138.347 26.848C138.795 27.104 139.355 27.232 140.027 27.232C140.603 27.232 141.083 27.16 141.467 27.016C141.867 26.872 142.299 26.624 142.763 26.272L145.595 29.128C144.315 30.536 142.403 31.24 139.859 31.24C138.275 31.24 136.883 30.952 135.683 30.376C134.483 29.784 133.555 28.968 132.899 27.928C132.243 26.888 131.915 25.72 131.915 24.424C131.915 23.112 132.235 21.944 132.875 20.92C133.531 19.88 134.419 19.072 135.539 18.496C136.675 17.92 137.947 17.632 139.355 17.632C140.683 17.632 141.891 17.896 142.979 18.424C144.083 18.952 144.955 19.728 145.595 20.752C146.251 21.776 146.579 23 146.579 24.424ZM139.403 21.328C138.843 21.328 138.379 21.48 138.011 21.784C137.643 22.088 137.403 22.52 137.291 23.08H141.515C141.403 22.536 141.163 22.112 140.795 21.808C140.427 21.488 139.963 21.328 139.403 21.328ZM157.291 17.632C158.443 17.632 159.499 17.912 160.459 18.472C161.435 19.016 162.203 19.808 162.763 20.848C163.339 21.888 163.627 23.088 163.627 24.448C163.627 25.808 163.339 27.008 162.763 28.048C162.203 29.072 161.435 29.864 160.459 30.424C159.499 30.968 158.443 31.24 157.291 31.24C155.835 31.24 154.723 30.864 153.955 30.112V35.656H148.531V17.872H153.691V18.952C154.475 18.072 155.675 17.632 157.291 17.632ZM155.995 27.016C156.619 27.016 157.131 26.792 157.531 26.344C157.931 25.896 158.131 25.264 158.131 24.448C158.131 23.632 157.931 23 157.531 22.552C157.131 22.088 156.619 21.856 155.995 21.856C155.371 21.856 154.859 22.088 154.459 22.552C154.059 23 153.859 23.632 153.859 24.448C153.859 25.264 154.059 25.896 154.459 26.344C154.859 26.792 155.371 27.016 155.995 27.016ZM171.127 17.632C173.431 17.632 175.191 18.152 176.407 19.192C177.623 20.216 178.231 21.8 178.231 23.944V31H173.191V29.272C172.567 30.584 171.327 31.24 169.471 31.24C168.431 31.24 167.543 31.064 166.807 30.712C166.087 30.344 165.535 29.856 165.151 29.248C164.783 28.624 164.599 27.928 164.599 27.16C164.599 25.864 165.095 24.88 166.087 24.208C167.079 23.536 168.583 23.2 170.599 23.2H172.783C172.607 22.176 171.783 21.664 170.311 21.664C169.719 21.664 169.119 21.76 168.511 21.952C167.903 22.128 167.383 22.376 166.951 22.696L165.223 19.12C165.975 18.656 166.879 18.296 167.935 18.04C169.007 17.768 170.071 17.632 171.127 17.632ZM171.103 27.976C171.487 27.976 171.831 27.872 172.135 27.664C172.439 27.456 172.663 27.144 172.807 26.728V25.816H171.463C170.359 25.816 169.807 26.184 169.807 26.92C169.807 27.224 169.919 27.48 170.143 27.688C170.383 27.88 170.703 27.976 171.103 27.976ZM180.815 17.872H186.239V31H180.815V17.872ZM183.527 16.816C182.551 16.816 181.759 16.56 181.151 16.048C180.559 15.52 180.263 14.856 180.263 14.056C180.263 13.256 180.559 12.6 181.151 12.088C181.759 11.56 182.551 11.296 183.527 11.296C184.519 11.296 185.311 11.544 185.903 12.04C186.495 12.536 186.791 13.176 186.791 13.96C186.791 14.792 186.495 15.48 185.903 16.024C185.311 16.552 184.519 16.816 183.527 16.816ZM194.043 19.288C195.003 18.184 196.419 17.632 198.291 17.632V22.432C197.859 22.368 197.459 22.336 197.091 22.336C195.235 22.336 194.307 23.28 194.307 25.168V31H188.883V17.872H194.043V19.288Z" fill="white"/>
<rect width="46" height="46" rx="23" fill="white"/>
<path d="M17.1906 22.9213H12.0525C11.5967 22.9213 11.2238 23.2942 11.2238 23.75V27.3135C11.2238 27.7693 11.5967 28.1423 12.0525 28.1423H17.1906C17.6464 28.1423 18.0193 27.7693 18.0193 27.3135V23.75C18.0193 23.2942 17.6464 22.9213 17.1906 22.9213ZM16.3619 26.4848H12.8812V24.5787H16.3619V26.4848Z" fill="#001334"/>
<path d="M37.2293 20.8412L35.4641 20.6754C35.2569 19.9627 34.9669 19.2749 34.5939 18.6285L35.7127 17.2859C35.9862 16.9544 35.9613 16.482 35.663 16.1754L33.4586 13.9461C33.1602 13.6395 32.6713 13.6146 32.3398 13.8881L30.9889 15.0069C30.3508 14.6423 29.663 14.3522 28.9586 14.145L28.7928 12.3881C28.7514 11.9655 28.395 11.6423 27.9724 11.6423H25.1547V9.15608C25.1547 8.70028 24.7818 8.32735 24.326 8.32735C23.8702 8.32735 23.4972 8.70028 23.4972 9.15608V10.6478H15.2265C13.9669 10.6561 12.8481 11.4434 12.4088 12.6202L9.92265 19.3329C9.92265 19.3412 9.91436 19.3577 9.91436 19.366L9.29282 19.9461C8.47238 20.7169 8 21.7942 8 22.9213V32.8163C8 34.4738 9.37569 35.7749 11.0331 35.7749H12.8398C14.4972 35.7749 15.8729 34.4655 15.8729 32.8163V31.5401H23.4972V36.8439C23.4972 37.2997 23.8702 37.6727 24.326 37.6727C24.7818 37.6727 25.1547 37.2997 25.1547 36.8439V34.855H27.9724C28.4033 34.855 28.7597 34.5318 28.8011 34.1008L28.9669 32.3356C29.6796 32.1285 30.3591 31.8467 31.0055 31.482L32.3564 32.6008C32.6878 32.8743 33.1685 32.8495 33.4669 32.5511L35.6961 30.3218C35.9945 30.0235 36.0193 29.5345 35.7459 29.203L34.6271 27.8522C34.9917 27.2058 35.2818 26.5262 35.489 25.8218L37.2376 25.6561C37.6685 25.6146 37.9917 25.2583 38 24.8274V21.6616C37.9834 21.239 37.6519 20.8826 37.2293 20.8412ZM14.2072 32.808C14.2072 33.5456 13.5773 34.1091 12.8315 34.1091H11.0249C10.2873 34.1091 9.64917 33.5456 9.64917 32.808V31.25C10.0801 31.4489 10.5525 31.5483 11.0249 31.5401H14.2072V32.808ZM23.4889 23.6671H20.895C20.4392 23.6671 20.0663 24.0401 20.0663 24.4959C20.0663 24.9517 20.4392 25.3246 20.895 25.3246H23.4889V25.739H20.895C20.4392 25.739 20.0663 26.1119 20.0663 26.5677C20.0663 27.0235 20.4392 27.3964 20.895 27.3964H23.4889V29.8826H11.0249C10.2873 29.8826 9.64917 29.3108 9.64917 28.5649V22.913C9.65746 22.2417 9.93923 21.5953 10.4282 21.1395L11.174 20.4351H23.4889V23.6671ZM14.8619 18.7776C15.2265 17.4517 16.4696 16.4157 17.9448 16.4157C19.4199 16.4157 20.6547 17.4517 21.0193 18.7776H14.8619ZM23.4889 18.7776H22.7182C22.3204 16.5401 20.3315 14.7583 17.9448 14.7583C15.558 14.7583 13.5608 16.5401 13.163 18.7776H11.8867L13.9586 13.192C14.1575 12.6616 14.6547 12.3135 15.2182 12.3135H23.4889V18.7776ZM25.1464 19.7472C27.0773 19.0677 29.1989 20.0787 29.8785 22.0097C30.558 23.9406 29.547 26.0622 27.616 26.7417C26.8204 27.0235 25.942 27.0235 25.1464 26.7417V19.7472ZM36.3343 24.0732L34.7514 24.2224C34.395 24.2555 34.0967 24.5207 34.0138 24.8688C33.8066 25.797 33.4337 26.6754 32.9116 27.471C32.7127 27.7776 32.7376 28.1671 32.9696 28.4489L33.9807 29.6754L32.8204 30.8356L31.5939 29.8246C31.3122 29.5925 30.9061 29.5677 30.6077 29.7749C29.8204 30.297 28.942 30.6699 28.0138 30.8688C27.6575 30.9434 27.4006 31.2417 27.3674 31.5981L27.2182 33.1892H25.1464V28.4572C28.0304 29.1367 30.9144 27.3467 31.5939 24.471C32.2735 21.5953 30.4834 18.703 27.6077 18.0235C26.7956 17.8329 25.9586 17.8329 25.1464 18.0235V13.308H27.2099L27.3674 14.8909C27.4006 15.2472 27.6657 15.5456 28.0138 15.6202C28.942 15.8273 29.8204 16.2003 30.616 16.7141C30.9227 16.913 31.3122 16.8881 31.5939 16.6561L32.8122 15.645L33.9558 16.797L32.9365 18.0318C32.7044 18.3135 32.6796 18.7113 32.8867 19.018C33.4088 19.8053 33.7818 20.6837 33.9807 21.6119C34.0635 21.9682 34.3619 22.2251 34.7265 22.2583L36.3343 22.4075V24.0732Z" fill="#001334"/>
</svg>
