<svg width="48" height="66" viewBox="0 0 48 66" fill="none" xmlns="http://www.w3.org/2000/svg">
<path d="M36.9339 23.7744C37.9219 22.9886 38.3694 21.6521 37.9425 20.3857C37.5754 19.3132 36.6844 18.5893 35.649 18.3748C36.7648 16.2401 37.6682 13.7218 38.155 11.7769C38.8851 8.85225 39.3553 4.81181 37.4496 2.17388C36.1523 0.377438 34.5786 0 33.4896 0C30.9568 0 28.7211 2.01094 26.7431 3.78262C26.0831 4.37456 25.1323 5.22844 24.5734 5.56669C24.0722 5.28825 23.3792 4.8345 22.7068 4.39106C20.3453 2.83181 17.4103 0.895125 14.4362 0.895125C13.2956 0.895125 12.2438 1.18181 11.3095 1.74075C10.4226 2.277 9.33564 3.42787 9.21807 5.87812C9.05101 9.3225 10.8825 14.7531 12.9038 18.4181C11.9942 18.6636 11.2043 19.3091 10.833 20.2558C10.3339 21.5325 10.7567 22.9309 11.7673 23.7517C6.66676 29.5886 0.124512 40.9365 0.124512 46.926C0.124512 58.3337 9.72132 66 24 66C38.2787 66 47.8755 58.3316 47.8755 46.9239C47.8776 40.8994 41.7973 29.6835 36.9339 23.7744ZM13.869 5.59762C14.001 5.54606 14.1825 5.50069 14.4321 5.50069C16.0223 5.50069 18.4168 7.08056 20.1638 8.23556C21.3311 9.00488 22.3397 9.669 23.2658 10.0402C23.6597 10.197 24.0825 10.2774 24.5177 10.2774C26.3904 10.2774 27.9827 8.85637 29.8101 7.21256C30.8248 6.303 32.7141 4.60556 33.4524 4.59731C33.4813 4.60969 33.5783 4.686 33.7061 4.87162C35.5108 7.36931 32.1551 16.4093 30.27 18.2985C29.4161 18.4429 27.4217 18.7172 24.7755 18.7172C22.0365 18.7172 19.1923 18.2016 18.0167 17.9603C16.1934 15.9101 13.176 7.66012 13.869 5.59762ZM24 61.3924C15.1086 61.3924 4.73214 57.6056 4.73214 46.9239C4.73214 42.1183 11.8539 29.8877 16.4595 25.4657C17.2247 25.6101 18.0064 25.7317 18.7881 25.8328C19.2954 25.9091 19.8069 25.9689 20.3143 26.0143C20.3741 26.0226 20.4319 26.0267 20.4917 26.0349C20.8712 26.0679 21.2404 26.0906 21.6075 26.1154C25.2169 26.3567 28.8778 26.1669 32.3696 25.5317C36.8824 30.2899 43.2679 41.9801 43.2679 46.926C43.2679 57.6056 32.8935 61.3924 24 61.3924Z" fill="black"/>
<path d="M30.1339 45.7649C29.7193 45.2327 29.1109 44.7377 28.3106 44.2737C27.5124 43.8179 26.442 43.492 25.0952 43.2899C22.9316 42.964 21.8488 42.2999 21.8488 41.2913C21.8488 40.9324 22.022 40.6024 22.3727 40.2972C22.7192 39.9919 23.2183 39.829 23.868 39.829C24.3176 39.829 24.7095 39.8702 25.0395 39.9466C25.3736 40.027 25.6809 40.1363 25.9573 40.2848C26.2357 40.425 26.4977 40.6148 26.7472 40.8437C26.9885 41.0644 27.2464 41.3222 27.5124 41.6213H30.7835V36.7538H27.533V37.4509C27.1453 37.2179 26.7163 37.0322 26.2357 36.892V35.1306H22.9852V36.661C22.352 36.7538 21.7684 36.9353 21.2362 37.2055C20.7041 37.4757 20.238 37.8181 19.842 38.2285C19.448 38.6348 19.1407 39.103 18.9283 39.631C18.7117 40.1549 18.6024 40.7138 18.6024 41.3037C18.6024 41.7017 18.6705 42.1658 18.8004 42.6814C18.9304 43.2012 19.2109 43.7044 19.6337 44.1994C20.0606 44.6944 20.6649 45.1502 21.4549 45.5689C22.2448 45.9876 23.2967 46.2991 24.6084 46.4991C24.9838 46.5589 25.3571 46.6394 25.7366 46.7404C26.1161 46.8415 26.4626 46.9776 26.7802 47.1467C27.0979 47.3159 27.3557 47.5221 27.5578 47.7593C27.762 48.0006 27.8589 48.2832 27.8589 48.6091C27.8589 48.9968 27.663 49.3062 27.2794 49.5475C26.8916 49.7847 26.4049 49.9064 25.817 49.9064C25.3695 49.9064 24.9714 49.8692 24.6249 49.8012C24.2743 49.7331 23.9608 49.6238 23.67 49.4794C23.3833 49.3309 23.1069 49.1453 22.8367 48.9205C22.5665 48.6998 22.2922 48.4337 22.0159 48.1223H18.7654V52.9919H22.0159V52.2659C22.1685 52.3463 22.3252 52.4185 22.4902 52.4866C22.6511 52.5505 22.8161 52.6268 22.9852 52.7031V54.6047H26.2357V53.1507C26.9287 53.1074 27.5743 52.9609 28.1704 52.7114C28.7623 52.4618 29.2779 52.1442 29.7131 51.7358C30.1442 51.3336 30.4865 50.8654 30.732 50.3333C30.9815 49.797 31.1032 49.2216 31.1032 48.6049C31.1032 48.2791 31.0496 47.8562 30.93 47.3406C30.8145 46.825 30.5505 46.297 30.1339 45.7649Z" fill="black"/>
</svg>
