<svg width="62" height="62" viewBox="0 0 62 62" fill="none" xmlns="http://www.w3.org/2000/svg">
<path d="M31 0.0625C25.5328 0.06364 20.1634 1.51328 15.4385 4.26387C10.7135 7.01445 6.80169 10.9678 4.10111 15.7215C1.40053 20.4752 0.00762087 25.8595 0.0641658 31.3265C0.120711 36.7934 1.62469 42.1478 4.42301 46.8446C4.28212 47.0154 4.19999 47.227 4.18877 47.4481C4.17756 47.6691 4.23786 47.888 4.36075 48.0721L5.52864 49.8239L0.563176 52.8032C0.384676 52.9103 0.242759 53.0689 0.156085 53.2581C0.0694109 53.4474 0.0420366 53.6584 0.0775615 53.8635C0.113086 54.0686 0.209847 54.2582 0.355122 54.4073C0.500397 54.5563 0.687384 54.658 0.8915 54.6988L5.17209 55.5548L4.88553 60.8504C4.8754 61.0374 4.91638 61.2236 5.00407 61.3891C5.09175 61.5546 5.22284 61.693 5.38326 61.7896C5.54368 61.8862 5.72738 61.9373 5.91464 61.9375C6.1019 61.9376 6.28566 61.8867 6.4462 61.7903L14.3224 57.0594C19.302 60.2444 25.0894 61.937 31.0005 61.937C36.9115 61.937 42.6989 60.2444 47.6785 57.0594L55.5547 61.7903C55.7152 61.8867 55.899 61.9376 56.0863 61.9375C56.2735 61.9373 56.4572 61.8862 56.6176 61.7896C56.7781 61.693 56.9091 61.5546 56.9968 61.3891C57.0845 61.2236 57.1255 61.0374 57.1154 60.8504L56.8288 55.5548L61.1094 54.6988C61.3135 54.658 61.5005 54.5563 61.6458 54.4073C61.791 54.2582 61.8878 54.0686 61.9233 53.8635C61.9589 53.6584 61.9315 53.4474 61.8448 53.2581C61.7581 53.0689 61.6162 52.9103 61.4377 52.8032L56.4719 49.8239L57.6398 48.0721C57.7627 47.8879 57.823 47.669 57.8117 47.4478C57.8005 47.2267 57.7182 47.015 57.5772 46.8443C60.3765 42.1476 61.8812 36.793 61.9382 31.3257C61.9951 25.8584 60.6023 20.4737 57.9016 15.7197C55.2008 10.9657 51.2885 7.01233 46.563 4.26201C41.8375 1.51169 36.4676 0.0626732 31 0.0625ZM9.64913 46.5173C16.3123 43.3191 23.609 41.6586 31 41.6586C38.391 41.6586 45.6876 43.3191 52.3509 46.5173L55.2641 47.916L52.2886 52.3794C45.6036 49.3373 38.3443 47.7633 30.9997 47.7633C23.6552 47.7633 16.3959 49.3373 9.71088 52.3794L6.73546 47.916L9.64913 46.5173ZM31 39.5961C25.1744 39.6043 19.3919 40.5963 13.8967 42.5304C11.5914 39.1279 10.3642 35.1099 10.375 31C10.375 19.6272 19.6272 10.375 31 10.375C42.3727 10.375 51.625 19.6272 51.625 31C51.6348 35.1098 50.4075 39.1275 48.1026 42.5302C42.6076 40.5962 36.8254 39.6043 31 39.5961ZM38.1375 50.3519C33.5304 52.0494 28.4692 52.0494 23.8621 50.3519C28.5947 49.6503 33.4049 49.6503 38.1375 50.3519ZM7.04999 59.0218L7.27971 54.7746C7.29314 54.5269 7.21689 54.2827 7.06492 54.0868C6.91295 53.8908 6.69544 53.7561 6.45226 53.7075L3.91164 53.1995L6.6741 51.542L8.48575 54.2596C8.62329 54.4658 8.83052 54.6157 9.0695 54.6816C9.30849 54.7475 9.56322 54.7252 9.78706 54.6186C10.4773 54.2899 11.1757 53.9778 11.8822 53.6823L13.0423 55.4226L7.04999 59.0218ZM15.4387 55.326C15.4159 55.2746 15.3889 55.225 15.358 55.1779L13.8452 52.9092C15.9517 52.1307 18.1085 51.4957 20.3008 51.0084C23.5927 52.7674 27.2676 53.6876 31 53.6876C34.7324 53.6876 38.4072 52.7674 41.6992 51.0084C43.8915 51.4954 46.0484 52.1302 48.155 52.9085L46.6421 55.1773C46.6112 55.2243 46.5843 55.2738 46.5616 55.3253C41.9149 58.2958 36.5152 59.8743 31.0002 59.8743C25.4852 59.8743 20.0854 58.2958 15.4388 55.3253L15.4387 55.326ZM58.0883 53.1991L55.5477 53.7071C55.3046 53.7557 55.087 53.8904 54.9351 54.0864C54.7831 54.2824 54.7068 54.5265 54.7203 54.7742L54.95 59.0214L48.9578 55.4226L50.1179 53.6823C50.8237 53.9785 51.5221 54.2906 52.2131 54.6186C52.437 54.7253 52.6919 54.7478 52.931 54.6819C53.1701 54.6159 53.3775 54.466 53.515 54.2596L55.3267 51.542L58.0883 53.1991ZM55.7594 45.8653L53.2434 44.6576C52.2072 44.1603 51.1539 43.6986 50.0837 43.2725C52.4458 39.616 53.6976 35.3532 53.6875 31C53.6875 18.49 43.51 8.3125 31 8.3125C18.49 8.3125 8.3125 18.49 8.3125 31C8.30117 35.3534 9.55265 39.6167 11.9153 43.2733C10.8466 43.6995 9.79385 44.161 8.7571 44.658L6.24175 45.8653C3.61239 41.4838 2.19288 36.4829 2.12816 31.3733C2.06343 26.2638 3.35581 21.2285 5.87333 16.7818C8.39085 12.335 12.0433 8.63592 16.4579 6.06227C20.8724 3.48863 25.8909 2.13257 31.0008 2.13257C36.1108 2.13257 41.1292 3.48863 45.5438 6.06227C49.9583 8.63592 53.6108 12.335 56.1283 16.7818C58.6459 21.2285 59.9382 26.2638 59.8735 31.3733C59.8088 36.4829 58.3893 41.4838 55.7599 45.8653H55.7594Z" fill="black"/>
<path d="M40.7969 22.75H35.125C34.8516 22.7497 34.5895 22.6409 34.3961 22.4476C34.2028 22.2543 34.0941 21.9922 34.0938 21.7188V18.625C34.0928 17.8048 33.7665 17.0184 33.1866 16.4384C32.6066 15.8585 31.8202 15.5322 31 15.5312H28.9375C28.664 15.5312 28.4017 15.6399 28.2083 15.8333C28.0149 16.0267 27.9062 16.289 27.9062 16.5625V18.8355C27.9084 19.6145 27.756 20.3862 27.4578 21.1059C27.1597 21.8256 26.7218 22.479 26.1694 23.0283L25.4166 23.7812H19.6562C19.3827 23.7812 19.1204 23.8899 18.927 24.0833C18.7336 24.2767 18.625 24.539 18.625 24.8125V36.1562C18.625 36.4298 18.7336 36.6921 18.927 36.8855C19.1204 37.0789 19.3827 37.1875 19.6562 37.1875H37.7031C38.1207 37.1876 38.5321 37.0863 38.9019 36.8922C39.2716 36.6981 39.5887 36.4171 39.8259 36.0734C40.063 35.7297 40.2131 35.3334 40.2632 34.9189C40.3134 34.5043 40.262 34.0837 40.1137 33.6934C40.6159 33.3757 40.993 32.8942 41.1809 32.3304C41.3689 31.7666 41.3561 31.1551 41.1449 30.5996C41.6472 30.2819 42.0242 29.8004 42.2122 29.2366C42.4001 28.6728 42.3874 28.0614 42.1762 27.5059C42.6478 27.207 43.0097 26.7631 43.2074 26.2408C43.4051 25.7186 43.4279 25.1463 43.2723 24.61C43.1168 24.0737 42.7914 23.6024 42.3449 23.267C41.8985 22.9316 41.3553 22.7501 40.7969 22.75ZM20.6875 25.8438H24.8125V35.125H20.6875V25.8438ZM40.7969 25.8438H39.7656C39.4921 25.8438 39.2298 25.9524 39.0364 26.1458C38.843 26.3392 38.7344 26.6015 38.7344 26.875C38.7344 27.1485 38.843 27.4108 39.0364 27.6042C39.2298 27.7976 39.4921 27.9062 39.7656 27.9062C39.9024 27.9062 40.0335 27.9606 40.1302 28.0573C40.2269 28.154 40.2812 28.2851 40.2812 28.4219C40.2812 28.5586 40.2269 28.6898 40.1302 28.7865C40.0335 28.8832 39.9024 28.9375 39.7656 28.9375H38.7344C38.4609 28.9375 38.1986 29.0461 38.0052 29.2395C37.8118 29.4329 37.7031 29.6952 37.7031 29.9688C37.7031 30.2423 37.8118 30.5046 38.0052 30.698C38.1986 30.8914 38.4609 31 38.7344 31C38.8711 31 39.0023 31.0543 39.099 31.151C39.1957 31.2477 39.25 31.3789 39.25 31.5156C39.25 31.6524 39.1957 31.7835 39.099 31.8802C39.0023 31.9769 38.8711 32.0312 38.7344 32.0312H37.7031C37.4296 32.0312 37.1673 32.1399 36.9739 32.3333C36.7805 32.5267 36.6719 32.789 36.6719 33.0625C36.6719 33.336 36.7805 33.5983 36.9739 33.7917C37.1673 33.9851 37.4296 34.0938 37.7031 34.0938C37.8399 34.0938 37.971 34.1481 38.0677 34.2448C38.1644 34.3415 38.2188 34.4726 38.2188 34.6094C38.2188 34.7461 38.1644 34.8773 38.0677 34.974C37.971 35.0707 37.8399 35.125 37.7031 35.125H26.875V25.2396L27.6279 24.4869C28.3724 23.7464 28.9626 22.8657 29.3644 21.8956C29.7662 20.9256 29.9716 19.8855 29.9688 18.8355V17.5938H31C31.2734 17.5941 31.5355 17.7028 31.7289 17.8961C31.9222 18.0895 32.0309 18.3516 32.0312 18.625V21.7188C32.0322 22.539 32.3585 23.3253 32.9384 23.9053C33.5184 24.4853 34.3048 24.8115 35.125 24.8125H40.7969C40.9336 24.8125 41.0648 24.8668 41.1615 24.9635C41.2582 25.0602 41.3125 25.1914 41.3125 25.3281C41.3125 25.4649 41.2582 25.596 41.1615 25.6927C41.0648 25.7894 40.9336 25.8438 40.7969 25.8438Z" fill="black"/>
<path d="M28.8615 44.432L29.8154 45.1251L29.4509 46.2466C29.4257 46.3243 29.4256 46.408 29.4508 46.4857C29.4761 46.5634 29.5252 46.6312 29.5913 46.6792C29.6574 46.7272 29.737 46.7531 29.8187 46.7531C29.9004 46.753 29.98 46.7272 30.0461 46.6791L31 45.986L31.9539 46.6791C32.02 46.7272 32.0996 46.753 32.1813 46.7531C32.263 46.7531 32.3426 46.7272 32.4087 46.6792C32.4748 46.6312 32.524 46.5634 32.5492 46.4857C32.5744 46.408 32.5744 46.3243 32.5491 46.2466L32.1847 45.1251L33.1386 44.432C33.2046 44.384 33.2538 44.3163 33.279 44.2387C33.3043 44.161 33.3043 44.0773 33.2791 43.9997C33.2538 43.922 33.2047 43.8543 33.1386 43.8063C33.0725 43.7583 32.993 43.7325 32.9113 43.7324H31.7322L31.3678 42.611C31.3425 42.5333 31.2934 42.4656 31.2273 42.4176C31.1612 42.3697 31.0817 42.3438 31 42.3438C30.9184 42.3438 30.8388 42.3697 30.7727 42.4176C30.7067 42.4656 30.6575 42.5333 30.6322 42.611L30.2678 43.7324H29.0887C29.0071 43.7325 28.9275 43.7583 28.8614 43.8063C28.7954 43.8543 28.7462 43.922 28.721 43.9997C28.6957 44.0773 28.6957 44.161 28.721 44.2387C28.7462 44.3163 28.7954 44.384 28.8615 44.432Z" fill="black"/>
<path d="M22.9101 45.1776L23.864 45.8707L23.4996 46.9922C23.4743 47.0699 23.4743 47.1536 23.4995 47.2313C23.5247 47.309 23.5739 47.3767 23.64 47.4247C23.7061 47.4728 23.7857 47.4986 23.8674 47.4986C23.9491 47.4986 24.0287 47.4727 24.0948 47.4247L25.0487 46.7315L26.0026 47.4247C26.0686 47.4727 26.1482 47.4986 26.2299 47.4986C26.3116 47.4986 26.3912 47.4728 26.4573 47.4247C26.5234 47.3767 26.5726 47.309 26.5978 47.2313C26.623 47.1536 26.623 47.0699 26.5977 46.9922L26.2333 45.8707L27.1872 45.1776C27.2533 45.1296 27.3024 45.0619 27.3277 44.9842C27.3529 44.9066 27.3529 44.8229 27.3277 44.7452C27.3025 44.6676 27.2533 44.5999 27.1872 44.5519C27.1212 44.5039 27.0416 44.478 26.9599 44.478H25.7807L25.4164 43.3565C25.3912 43.2788 25.342 43.2111 25.276 43.1631C25.2099 43.115 25.1303 43.0892 25.0486 43.0892C24.9669 43.0892 24.8873 43.115 24.8212 43.1631C24.7551 43.2111 24.706 43.2788 24.6808 43.3565L24.3165 44.478H23.1374C23.0557 44.478 22.9761 44.5039 22.9101 44.5519C22.844 44.5999 22.7949 44.6676 22.7696 44.7452C22.7444 44.8229 22.7444 44.9066 22.7696 44.9842C22.7949 45.0619 22.844 45.1296 22.9101 45.1776Z" fill="black"/>
<path d="M34.8127 45.1776L35.7666 45.8707L35.4022 46.9922C35.3769 47.0699 35.3768 47.1536 35.4021 47.2313C35.4273 47.309 35.4765 47.3767 35.5426 47.4247C35.6086 47.4728 35.6882 47.4986 35.7699 47.4986C35.8516 47.4986 35.9312 47.4727 35.9973 47.4247L36.9512 46.7315L37.9051 47.4247C37.9712 47.4727 38.0508 47.4986 38.1325 47.4986C38.2142 47.4986 38.2938 47.4728 38.3599 47.4247C38.426 47.3767 38.4752 47.309 38.5004 47.2313C38.5256 47.1536 38.5256 47.0699 38.5003 46.9922L38.1359 45.8707L39.0898 45.1776C39.1558 45.1296 39.205 45.0619 39.2302 44.9842C39.2555 44.9065 39.2555 44.8228 39.2302 44.7452C39.205 44.6675 39.1558 44.5998 39.0897 44.5518C39.0236 44.5038 38.944 44.478 38.8624 44.478H37.6833L37.319 43.3565C37.2938 43.2788 37.2446 43.2111 37.1785 43.1631C37.1124 43.115 37.0328 43.0892 36.9512 43.0892C36.8695 43.0892 36.7899 43.115 36.7238 43.1631C36.6577 43.2111 36.6085 43.2788 36.5833 43.3565L36.219 44.478H35.0399C34.9583 44.478 34.8787 44.5039 34.8127 44.5519C34.7466 44.5999 34.6974 44.6676 34.6722 44.7452C34.647 44.8229 34.647 44.9066 34.6722 44.9842C34.6974 45.0619 34.7466 45.1296 34.8127 45.1776Z" fill="black"/>
</svg>
