<svg width="66" height="66" viewBox="0 0 66 66" fill="none" xmlns="http://www.w3.org/2000/svg">
<path d="M19.0588 29.408C19.0588 31.9065 19.8765 34.3489 21.4084 36.4263C22.9402 38.5038 25.1175 40.1229 27.665 41.0791C30.2124 42.0352 33.0155 42.2854 35.7198 41.7979C38.4241 41.3105 40.9082 40.1074 42.8579 38.3406C44.8076 36.5739 46.1354 34.323 46.6733 31.8725C47.2113 29.422 46.9352 26.882 45.88 24.5736C44.8248 22.2653 43.0379 20.2924 40.7453 18.9043C38.4527 17.5162 35.7573 16.7753 33 16.7753C29.3039 16.7791 25.7604 18.1113 23.1468 20.4796C20.5333 22.8478 19.0631 26.0588 19.0588 29.408ZM44.3843 29.408C44.3843 31.4482 43.7166 33.4427 42.4657 35.1391C41.2148 36.8355 39.4368 38.1577 37.3566 38.9385C35.2764 39.7193 32.9874 39.9235 30.7791 39.5255C28.5707 39.1275 26.5423 38.145 24.9501 36.7023C23.358 35.2596 22.2738 33.4215 21.8345 31.4205C21.3953 29.4194 21.6207 27.3453 22.4824 25.4603C23.344 23.5753 24.8031 21.9642 26.6753 20.8307C28.5474 19.6972 30.7484 19.0922 33 19.0922C36.0183 19.0952 38.912 20.183 41.0463 22.1169C43.1805 24.0509 44.381 26.673 44.3843 29.408Z" fill="black"/>
<path d="M28.4034 29.2928C28.291 29.173 28.1528 29.0752 27.9974 29.0054C27.842 28.9355 27.6725 28.8951 27.4992 28.8865C27.326 28.8779 27.1526 28.9014 26.9897 28.9554C26.8268 29.0095 26.6777 29.0931 26.5516 29.201C26.4254 29.309 26.3248 29.4391 26.256 29.5834C26.1871 29.7277 26.1514 29.8832 26.1509 30.0404C26.1505 30.1976 26.1854 30.3533 26.2535 30.4979C26.3216 30.6425 26.4215 30.773 26.547 30.8815L30.3277 34.5C30.447 34.6143 30.5909 34.7054 30.7504 34.7676C30.9099 34.8299 31.0818 34.862 31.2555 34.8621C31.2781 34.8621 31.3 34.8621 31.3219 34.8621C31.507 34.8537 31.6878 34.8089 31.8518 34.7308C32.0158 34.6527 32.1591 34.5432 32.2717 34.4099L39.5407 25.814C39.6471 25.6937 39.726 25.5553 39.7726 25.4069C39.8192 25.2586 39.8327 25.1034 39.8122 24.9503C39.7917 24.7971 39.7377 24.6493 39.6533 24.5154C39.5689 24.3814 39.4559 24.2641 39.3208 24.1702C39.1858 24.0764 39.0314 24.008 38.8667 23.9689C38.7021 23.9299 38.5305 23.921 38.362 23.9428C38.1935 23.9647 38.0315 24.0167 37.8856 24.0961C37.7396 24.1754 37.6126 24.2803 37.5119 24.4047L31.1561 31.9222L28.4034 29.2928Z" fill="black"/>
<path d="M65.9122 10.8372C65.8913 10.6127 65.7986 10.3985 65.6455 10.2209C65.4924 10.0432 65.2856 9.90984 65.0502 9.83698L33.412 0.0620759C33.1449 -0.020692 32.8551 -0.020692 32.588 0.0620759L0.94981 9.83698C0.714448 9.90984 0.507594 10.0432 0.354509 10.2209C0.201424 10.3985 0.108732 10.6127 0.0877545 10.8372C-0.301005 18.0636 0.603676 25.2994 2.7667 32.2638C6.04251 42.9827 13.85 57.5159 32.4316 65.8788C32.6082 65.9585 32.8027 66 33 66C33.1973 66 33.3918 65.9585 33.5684 65.8788C52.15 57.5159 59.956 42.9827 63.2333 32.2638C65.3963 25.2994 66.301 18.0636 65.9122 10.8372ZM33 63.544C2.30499 49.3358 2.3627 17.0983 2.59283 11.7766L33 2.383L63.4079 11.7773C63.6424 17.099 63.7264 49.3219 33 63.544Z" fill="black"/>
<path d="M60.0305 13.1813L33.412 4.95813C33.1449 4.87537 32.8551 4.87537 32.588 4.95813L5.96945 13.1813C5.71494 13.2598 5.49421 13.4091 5.33866 13.6078C5.18311 13.8065 5.10066 14.0446 5.10302 14.2882C5.17197 20.0467 6.07336 25.7722 7.78415 31.3185C11.922 44.594 20.1963 54.4509 32.3761 60.616C32.5669 60.7124 32.7816 60.763 33 60.763C33.2184 60.763 33.4331 60.7124 33.6239 60.616C45.8037 54.4509 54.0794 44.5959 58.2158 31.3185C59.9257 25.7721 60.8261 20.0466 60.8941 14.2882C60.8965 14.0449 60.8144 13.8071 60.6595 13.6085C60.5045 13.4098 60.2845 13.2604 60.0305 13.1813ZM55.7568 30.6889C51.8797 43.1217 44.2257 52.3961 33 58.2719C21.7743 52.3961 14.1203 43.1217 10.2461 30.6889C8.69089 25.6077 7.82874 20.373 7.67895 15.1018L33 7.2784L58.321 15.1018C58.1714 20.373 57.3092 25.6078 55.7539 30.6889H55.7568Z" fill="black"/>
</svg>
