<svg width="29" height="29" viewBox="0 0 29 29" fill="none" xmlns="http://www.w3.org/2000/svg">
<path d="M28.344 25.518L22.23 19.403C23.716 17.336 24.533 14.866 24.533 12.266C24.533 8.991 23.258 5.911 20.939 3.594C18.625 1.278 15.543 0 12.266 0C8.98998 0 5.90898 1.275 3.59298 3.594C1.27698 5.909 0.000976562 8.99 0.000976562 12.266C0.000976562 15.542 1.27598 18.622 3.59298 20.94C5.90898 23.256 8.98898 24.534 12.266 24.534C14.865 24.534 17.333 23.721 19.402 22.231L25.516 28.346C25.908 28.737 26.418 28.932 26.93 28.932C27.443 28.932 27.954 28.737 28.344 28.346C29.125 27.564 29.125 26.299 28.344 25.518ZM6.42198 18.111C4.85998 16.549 4.00098 14.472 4.00098 12.265C4.00098 10.058 4.85998 7.983 6.42198 6.421C7.98298 4.859 10.058 3.999 12.266 3.999C14.474 3.999 16.55 4.859 18.111 6.421C19.673 7.983 20.533 10.059 20.533 12.266C20.533 14.473 19.674 16.549 18.111 18.112C16.549 19.674 14.475 20.532 12.266 20.532C10.057 20.532 7.98098 19.672 6.42198 18.111Z" fill="#001334"/>
</svg>
